<svg xmlns="http://www.w3.org/2000/svg" width="800" height="800" viewBox="0 0 800 800">
  <rect width="800" height="800" fill="#07070a"/>
  
    
    <defs>
      <pattern id="grid" width="48" height="48" patternUnits="userSpaceOnUse">
        <path d="M 48 0 L 0 0 0 48" fill="none" stroke="#2a2a38" stroke-width="1" opacity="0.35"/>
      </pattern>
    </defs>
    <rect width="800" height="800" fill="url(#grid)"/>
  
    
    <defs>
      <radialGradient id="glow1" cx="50%" cy="50%" r="50%">
        <stop offset="0%" stop-color="#9370f5" stop-opacity="0.55"/>
        <stop offset="100%" stop-color="#9370f5" stop-opacity="0"/>
      </radialGradient>
    </defs>
    <circle cx="400" cy="400" r="288" fill="url(#glow1)"/>
  
    <g opacity="0.4" stroke="#9370f5" stroke-width="2" stroke-linecap="round"><line x1="481.7" y1="405.7" x2="678.4" y2="419.4" opacity="0.60"/><line x1="463.1" y1="452.2" x2="571.2" y2="541.7" opacity="0.51"/><line x1="434.8" y1="474.2" x2="511.3" y2="637.3" opacity="0.70"/><line x1="385.7" y1="480.7" x2="355.2" y2="653.1" opacity="0.37"/><line x1="356.1" y1="469.1" x2="268.9" y2="606.2" opacity="0.74"/><line x1="327.4" y1="438.0" x2="168.6" y2="521.1" opacity="0.51"/><line x1="318.1" y1="397.9" x2="144.6" y2="393.4" opacity="0.39"/><line x1="333.5" y1="352.2" x2="185.2" y2="245.6" opacity="0.59"/><line x1="367.6" y1="324.7" x2="306.8" y2="183.2" opacity="0.31"/><line x1="414.9" y1="319.5" x2="437.8" y2="196.2" opacity="0.27"/><line x1="451.2" y1="336.1" x2="534.8" y2="231.6" opacity="0.68"/><line x1="475.5" y1="368.3" x2="592.7" y2="319.1" opacity="0.73"/></g>
    <circle cx="222.5" cy="777.8" r="3.2" fill="#9370f5" opacity="0.54"/><circle cx="269.5" cy="414.1" r="2.4" fill="#9370f5" opacity="0.59"/><circle cx="718.2" cy="560.7" r="3.3" fill="#9370f5" opacity="0.32"/><circle cx="136.4" cy="466.9" r="4.0" fill="#9370f5" opacity="0.28"/><circle cx="617.9" cy="419.3" r="1.8" fill="#9370f5" opacity="0.55"/><circle cx="227.1" cy="319.0" r="3.5" fill="#9370f5" opacity="0.54"/><circle cx="376.2" cy="393.2" r="1.8" fill="#9370f5" opacity="0.57"/><circle cx="136.7" cy="39.3" r="3.0" fill="#9370f5" opacity="0.33"/><circle cx="684.2" cy="403.2" r="2.0" fill="#9370f5" opacity="0.68"/><circle cx="675.2" cy="289.7" r="3.5" fill="#9370f5" opacity="0.22"/><circle cx="159.3" cy="607.5" r="2.8" fill="#9370f5" opacity="0.26"/><circle cx="222.7" cy="546.7" r="2.8" fill="#9370f5" opacity="0.58"/>
    
    <g transform="translate(388.8941987987551 449.2153851727481)" opacity="0.9">
      <rect x="-60.93881738683128" y="-18.281645216049384" width="60.93881738683128" height="60.93881738683128" rx="14" fill="none" stroke="#9370f5" stroke-width="4" transform="rotate(-8)"/>
      <rect x="-12.187763477366257" y="-45.70411304012346" width="60.93881738683128" height="60.93881738683128" rx="14" fill="#9370f5" opacity="0.85" transform="rotate(6)"/>
      <rect x="-33.516349562757206" y="3.0469408693415643" width="42.6571721707819" height="42.6571721707819" rx="12" fill="none" stroke="#9370f5" stroke-width="3" opacity="0.7" transform="rotate(-14)"/>
    </g>
  
    <g transform="translate(389.6128208516978 404.39784006173016)" opacity="0.9">
      <rect x="-55.98714814814815" y="-16.796144444444444" width="55.98714814814815" height="55.98714814814815" rx="14" fill="none" stroke="#9370f5" stroke-width="4" transform="rotate(-8)"/>
      <rect x="-11.197429629629632" y="-41.99036111111111" width="55.98714814814815" height="55.98714814814815" rx="14" fill="#9370f5" opacity="0.85" transform="rotate(6)"/>
      <rect x="-30.792931481481485" y="2.799357407407408" width="39.1910037037037" height="39.1910037037037" rx="12" fill="none" stroke="#9370f5" stroke-width="3" opacity="0.7" transform="rotate(-14)"/>
    </g>
  
    <g transform="translate(372.73735213463107 438.61932593895057)" opacity="0.9">
      <rect x="-66.85816409465022" y="-20.057449228395065" width="66.85816409465022" height="66.85816409465022" rx="14" fill="none" stroke="#9370f5" stroke-width="4" transform="rotate(-8)"/>
      <rect x="-13.371632818930046" y="-50.143623070987665" width="66.85816409465022" height="66.85816409465022" rx="14" fill="#9370f5" opacity="0.85" transform="rotate(6)"/>
      <rect x="-36.77199025205763" y="3.3429082047325114" width="46.80071486625515" height="46.80071486625515" rx="12" fill="none" stroke="#9370f5" stroke-width="3" opacity="0.7" transform="rotate(-14)"/>
    </g>
  
    
    <g opacity="0.5" stroke="#9370f5" stroke-width="2.5" stroke-linecap="round">
      <path d="M 594 30 L 770 30 L 770 206" fill="none"/>
      <path d="M 30 594 L 30 770 L 206 770" fill="none"/>
    </g>
  
    <rect x="1" y="1" width="798" height="798" fill="none" stroke="#2a2a38" stroke-width="2"/>
  
</svg>