<svg xmlns="http://www.w3.org/2000/svg" width="800" height="800" viewBox="0 0 800 800">
  <rect width="800" height="800" fill="#07070a"/>
  
    
    <defs>
      <pattern id="grid" width="48" height="48" patternUnits="userSpaceOnUse">
        <path d="M 48 0 L 0 0 0 48" fill="none" stroke="#2a2a38" stroke-width="1" opacity="0.35"/>
      </pattern>
    </defs>
    <rect width="800" height="800" fill="url(#grid)"/>
  
    
    <defs>
      <radialGradient id="glow1" cx="50%" cy="50%" r="50%">
        <stop offset="0%" stop-color="#fed9e0" stop-opacity="0.55"/>
        <stop offset="100%" stop-color="#fed9e0" stop-opacity="0"/>
      </radialGradient>
    </defs>
    <circle cx="400" cy="400" r="468" fill="url(#glow1)"/>
  
    <g opacity="0.4" stroke="#fed9e0" stroke-width="2" stroke-linecap="round"><line x1="532.6" y1="411.9" x2="747.4" y2="431.3" opacity="0.62"/><line x1="499.2" y1="488.7" x2="638.1" y2="612.9" opacity="0.60"/><line x1="447.1" y1="524.5" x2="511.0" y2="693.5" opacity="0.39"/><line x1="391.8" y1="532.9" x2="375.8" y2="792.1" opacity="0.71"/><line x1="332.3" y1="514.6" x2="234.3" y2="680.7" opacity="0.27"/><line x1="278.1" y1="453.5" x2="107.6" y2="528.5" opacity="0.27"/><line x1="270.0" y1="371.5" x2="-23.7" y2="307.0" opacity="0.42"/><line x1="298.7" y1="313.6" x2="66.3" y2="115.2" opacity="0.43"/><line x1="347.1" y1="277.9" x2="243.0" y2="37.8" opacity="0.51"/><line x1="415.3" y1="267.8" x2="441.6" y2="39.8" opacity="0.37"/><line x1="471.0" y1="287.4" x2="614.8" y2="59.1" opacity="0.71"/><line x1="527.8" y1="362.7" x2="813.4" y2="279.2" opacity="0.75"/></g>
    <circle cx="287.1" cy="202.3" r="3.3" fill="#fed9e0" opacity="0.61"/><circle cx="40.3" cy="552.2" r="3.1" fill="#fed9e0" opacity="0.21"/><circle cx="224.8" cy="197.5" r="2.9" fill="#fed9e0" opacity="0.66"/><circle cx="30.6" cy="76.6" r="1.6" fill="#fed9e0" opacity="0.42"/><circle cx="40.6" cy="31.5" r="3.7" fill="#fed9e0" opacity="0.62"/><circle cx="274.4" cy="585.5" r="3.7" fill="#fed9e0" opacity="0.38"/><circle cx="366.7" cy="454.7" r="2.8" fill="#fed9e0" opacity="0.43"/><circle cx="277.9" cy="192.2" r="1.9" fill="#fed9e0" opacity="0.51"/><circle cx="738.9" cy="766.0" r="3.5" fill="#fed9e0" opacity="0.70"/><circle cx="228.7" cy="269.8" r="3.7" fill="#fed9e0" opacity="0.48"/><circle cx="485.6" cy="767.8" r="2.0" fill="#fed9e0" opacity="0.22"/><circle cx="551.5" cy="472.5" r="1.6" fill="#fed9e0" opacity="0.44"/><circle cx="150.0" cy="55.3" r="3.3" fill="#fed9e0" opacity="0.40"/><circle cx="397.0" cy="691.6" r="3.1" fill="#fed9e0" opacity="0.58"/><circle cx="245.7" cy="238.2" r="2.2" fill="#fed9e0" opacity="0.43"/><circle cx="663.9" cy="344.4" r="3.4" fill="#fed9e0" opacity="0.52"/><circle cx="545.4" cy="496.8" r="1.8" fill="#fed9e0" opacity="0.42"/><circle cx="354.6" cy="596.5" r="1.7" fill="#fed9e0" opacity="0.53"/><circle cx="703.7" cy="70.7" r="3.2" fill="#fed9e0" opacity="0.68"/><circle cx="664.2" cy="716.8" r="2.5" fill="#fed9e0" opacity="0.57"/><circle cx="611.7" cy="480.7" r="2.1" fill="#fed9e0" opacity="0.54"/><circle cx="2.7" cy="567.2" r="1.7" fill="#fed9e0" opacity="0.21"/><circle cx="486.8" cy="285.0" r="1.6" fill="#fed9e0" opacity="0.37"/><circle cx="750.2" cy="424.2" r="2.3" fill="#fed9e0" opacity="0.32"/><circle cx="694.4" cy="767.5" r="3.2" fill="#fed9e0" opacity="0.44"/><circle cx="546.3" cy="534.7" r="3.5" fill="#fed9e0" opacity="0.65"/><circle cx="503.6" cy="160.3" r="1.6" fill="#fed9e0" opacity="0.69"/><circle cx="111.9" cy="404.9" r="1.8" fill="#fed9e0" opacity="0.21"/><circle cx="576.2" cy="399.2" r="2.2" fill="#fed9e0" opacity="0.25"/><circle cx="405.1" cy="222.3" r="1.6" fill="#fed9e0" opacity="0.48"/><circle cx="388.8" cy="12.5" r="1.7" fill="#fed9e0" opacity="0.35"/><circle cx="309.8" cy="411.8" r="1.9" fill="#fed9e0" opacity="0.49"/><circle cx="188.1" cy="343.6" r="1.6" fill="#fed9e0" opacity="0.54"/><circle cx="458.2" cy="123.9" r="2.1" fill="#fed9e0" opacity="0.70"/>
    
      
    <g transform="translate(400 470)" opacity="0.95">
      <path d="M -182.8 -13.3 Q 0 -181.3 182.8 -13.3 Z" fill="#fed9e0" opacity="0.85"/>
      <rect x="-182.8" y="-13.3" width="365.5" height="160.0" rx="6" fill="#fed9e0" opacity="0.85"/>
      <rect x="-182.8" y="-21.3" width="365.5" height="26.7" fill="#07070a" opacity="0.4"/>
      <circle cx="0" cy="64.0" r="32.0" fill="#07070a" opacity="0.6"/>
      <rect x="-8.0" y="64.0" width="16.0" height="48.0" fill="#07070a" opacity="0.6"/>
    </g>
  
      
    <g transform="translate(373.6338454738765 377.780063582262)" opacity="0.92">
      <circle cx="0" cy="0" r="38.84174691358025" fill="#fed9e0" opacity="0.85"/>
      <circle cx="0" cy="0" r="27.189222839506176" fill="none" stroke="#07070a" stroke-width="4.7" opacity="0.5"/>
      <path d="M -11.7 -4.7 L 0 11.7 L 11.7 -4.7"
        fill="none" stroke="#07070a" stroke-width="5.4" stroke-linecap="round" stroke-linejoin="round" opacity="0.6"/>
    </g>
  
    <g transform="translate(403.720488253589 355.9126513135089)" opacity="0.92">
      <circle cx="0" cy="0" r="38.02385146604938" fill="#fed9e0" opacity="0.85"/>
      <circle cx="0" cy="0" r="26.616696026234564" fill="none" stroke="#07070a" stroke-width="4.6" opacity="0.5"/>
      <path d="M -11.4 -4.6 L 0 11.4 L 11.4 -4.6"
        fill="none" stroke="#07070a" stroke-width="5.3" stroke-linecap="round" stroke-linejoin="round" opacity="0.6"/>
    </g>
  
    <g transform="translate(398.7865254495498 359.10933457876405)" opacity="0.92">
      <circle cx="0" cy="0" r="30.71880324074074" fill="#fed9e0" opacity="0.85"/>
      <circle cx="0" cy="0" r="21.503162268518516" fill="none" stroke="#07070a" stroke-width="3.7" opacity="0.5"/>
      <path d="M -9.2 -3.7 L 0 9.2 L 9.2 -3.7"
        fill="none" stroke="#07070a" stroke-width="4.3" stroke-linecap="round" stroke-linejoin="round" opacity="0.6"/>
    </g>
  
    <g transform="translate(401.7886658497817 410.37282771379637)" opacity="0.92">
      <circle cx="0" cy="0" r="42.214102237654316" fill="#fed9e0" opacity="0.85"/>
      <circle cx="0" cy="0" r="29.549871566358018" fill="none" stroke="#07070a" stroke-width="5.1" opacity="0.5"/>
      <path d="M -12.7 -5.1 L 0 12.7 L 12.7 -5.1"
        fill="none" stroke="#07070a" stroke-width="5.9" stroke-linecap="round" stroke-linejoin="round" opacity="0.6"/>
    </g>
  
    <g transform="translate(415.3487948759885 362.0695606269828)" opacity="0.92">
      <circle cx="0" cy="0" r="26.39724845679012" fill="#fed9e0" opacity="0.85"/>
      <circle cx="0" cy="0" r="18.478073919753083" fill="none" stroke="#07070a" stroke-width="3.2" opacity="0.5"/>
      <path d="M -7.9 -3.2 L 0 7.9 L 7.9 -3.2"
        fill="none" stroke="#07070a" stroke-width="3.7" stroke-linecap="round" stroke-linejoin="round" opacity="0.6"/>
    </g>
  
    <g transform="translate(392.2483156744345 361.7368454343236)" opacity="0.92">
      <circle cx="0" cy="0" r="26.405741898148147" fill="#fed9e0" opacity="0.85"/>
      <circle cx="0" cy="0" r="18.484019328703702" fill="none" stroke="#07070a" stroke-width="3.2" opacity="0.5"/>
      <path d="M -7.9 -3.2 L 0 7.9 L 7.9 -3.2"
        fill="none" stroke="#07070a" stroke-width="3.7" stroke-linecap="round" stroke-linejoin="round" opacity="0.6"/>
    </g>
  
    <g transform="translate(490.6845824739846 302.74831766049783)" opacity="0.92">
      <circle cx="0" cy="0" r="31.827082561728393" fill="#fed9e0" opacity="0.85"/>
      <circle cx="0" cy="0" r="22.278957793209873" fill="none" stroke="#07070a" stroke-width="3.8" opacity="0.5"/>
      <path d="M -9.5 -3.8 L 0 9.5 L 9.5 -3.8"
        fill="none" stroke="#07070a" stroke-width="4.5" stroke-linecap="round" stroke-linejoin="round" opacity="0.6"/>
    </g>
  
    <g transform="translate(383.6316361792382 281.5301769693423)" opacity="0.92">
      <circle cx="0" cy="0" r="32.248770447530866" fill="#fed9e0" opacity="0.85"/>
      <circle cx="0" cy="0" r="22.574139313271605" fill="none" stroke="#07070a" stroke-width="3.9" opacity="0.5"/>
      <path d="M -9.7 -3.9 L 0 9.7 L 9.7 -3.9"
        fill="none" stroke="#07070a" stroke-width="4.5" stroke-linecap="round" stroke-linejoin="round" opacity="0.6"/>
    </g>
  
    <g transform="translate(309.40953564873047 373.33612066054945)" opacity="0.92">
      <circle cx="0" cy="0" r="35.10830555555555" fill="#fed9e0" opacity="0.85"/>
      <circle cx="0" cy="0" r="24.575813888888884" fill="none" stroke="#07070a" stroke-width="4.2" opacity="0.5"/>
      <path d="M -10.5 -4.2 L 0 10.5 L 10.5 -4.2"
        fill="none" stroke="#07070a" stroke-width="4.9" stroke-linecap="round" stroke-linejoin="round" opacity="0.6"/>
    </g>
  
    
    
    <g opacity="0.5" stroke="#fed9e0" stroke-width="2.5" stroke-linecap="round">
      <path d="M 594 30 L 770 30 L 770 206" fill="none"/>
      <path d="M 30 594 L 30 770 L 206 770" fill="none"/>
    </g>
  
    <rect x="1" y="1" width="798" height="798" fill="none" stroke="#2a2a38" stroke-width="2"/>
  
</svg>